<svg xmlns="http://www.w3.org/2000/svg" width="632.11328125" height="613.0555419921875" viewBox="-237.93580627441406 -232.2625732421875 632.11328125 613.0555419921875"><title>Neo4j Graph Visualization</title><desc>Created using Neo4j (http://www.neo4j.com/)</desc><g class="layer relationships"><g class="relationship" transform="translate(146.36110526673718 121.5938904719536) rotate(479.89036762837065)"><path class="outline" fill="#A5ABB6" stroke="none" d="M 25 0.5 L 50.42329097218405 0.5 L 50.42329097218405 -0.5 L 25 -0.5 Z M 72.42329097218405 0.5 L 97.8465819443681 0.5 L 97.8465819443681 3.5 L 104.8465819443681 0 L 97.8465819443681 -3.5 L 97.8465819443681 -0.5 L 72.42329097218405 -0.5 Z"/><text text-anchor="middle" pointer-events="none" font-size="8px" fill="#000000" x="61.42329097218405" y="3" transform="rotate(180 61.42329097218405 0)" font-family="sans-serif">包含</text></g><g class="relationship" transform="translate(146.36110526673718 121.5938904719536) rotate(400.5746392692041)"><path class="outline" fill="#A5ABB6" stroke="none" d="M 25 0.5 L 50.16392808596251 0.5 L 50.16392808596251 -0.5 L 25 -0.5 Z M 72.16392808596251 0.5 L 97.32785617192502 0.5 L 97.32785617192502 3.5 L 104.32785617192502 0 L 97.32785617192502 -3.5 L 97.32785617192502 -0.5 L 72.16392808596251 -0.5 Z"/><text text-anchor="middle" pointer-events="none" font-size="8px" fill="#000000" x="61.16392808596251" y="3" font-family="sans-serif">包含</text></g><g class="relationship" transform="translate(146.36110526673718 121.5938904719536) rotate(314.8084203197616)"><path class="outline" fill="#A5ABB6" stroke="none" d="M 25 0.5 L 50.314962840641755 0.5 L 50.314962840641755 -0.5 L 25 -0.5 Z M 72.31496284064175 0.5 L 97.62992568128351 0.5 L 97.62992568128351 3.5 L 104.62992568128351 0 L 97.62992568128351 -3.5 L 97.62992568128351 -0.5 L 72.31496284064175 -0.5 Z"/><text text-anchor="middle" pointer-events="none" font-size="8px" fill="#000000" x="61.314962840641755" y="3" font-family="sans-serif">包含</text></g><g class="relationship" transform="translate(365.1775018096262 197.25313635041817) rotate(535.9865497659815)"><path class="outline" fill="#A5ABB6" stroke="none" d="M 25 0.5 L 45.940332361096424 0.5 L 45.940332361096424 -0.5 L 25 -0.5 Z M 67.94033236109642 0.5 L 88.88066472219285 0.5 L 88.88066472219285 3.5 L 95.88066472219285 0 L 88.88066472219285 -3.5 L 88.88066472219285 -0.5 L 67.94033236109642 -0.5 Z"/><text text-anchor="middle" pointer-events="none" font-size="8px" fill="#000000" x="56.940332361096424" y="3" transform="rotate(180 56.940332361096424 0)" font-family="sans-serif">属于</text></g><g class="relationship" transform="translate(336.3079110829312 287.5570605501529) rotate(221.7447730276578)"><path class="outline" fill="#A5ABB6" stroke="none" d="M 25 0.5 L 46.96120141973587 0.5 L 46.96120141973587 -0.5 L 25 -0.5 Z M 68.96120141973587 0.5 L 90.92240283947174 0.5 L 90.92240283947174 3.5 L 97.92240283947174 0 L 90.92240283947174 -3.5 L 90.92240283947174 -0.5 L 68.96120141973587 -0.5 Z"/><text text-anchor="middle" pointer-events="none" font-size="8px" fill="#000000" x="57.96120141973587" y="3" transform="rotate(180 57.96120141973587 0)" font-family="sans-serif">属于</text></g><g class="relationship" transform="translate(25.179339245916168 346.8619656634113) rotate(296.6166647141099)"><path class="outline" fill="#A5ABB6" stroke="none" d="M 25 0.5 L 48.52605947563092 0.5 L 48.52605947563092 -0.5 L 25 -0.5 Z M 70.52605947563092 0.5 L 94.05211895126185 0.5 L 94.05211895126185 3.5 L 101.05211895126185 0 L 94.05211895126185 -3.5 L 94.05211895126185 -0.5 L 70.52605947563092 -0.5 Z"/><text text-anchor="middle" pointer-events="none" font-size="8px" fill="#000000" x="59.52605947563092" y="3" font-family="sans-serif">属于</text></g><g class="relationship" transform="translate(-29.081853810671554 279.41304724626474) rotate(337.7757870113088)"><path class="outline" fill="#A5ABB6" stroke="none" d="M 25 0.5 L 45.310769897816805 0.5 L 45.310769897816805 -0.5 L 25 -0.5 Z M 67.31076989781681 0.5 L 87.62153979563361 0.5 L 87.62153979563361 3.5 L 94.62153979563361 0 L 87.62153979563361 -3.5 L 87.62153979563361 -0.5 L 67.31076989781681 -0.5 Z"/><text text-anchor="middle" pointer-events="none" font-size="8px" fill="#000000" x="56.310769897816805" y="3" font-family="sans-serif">属于</text></g><g class="relationship" transform="translate(112.4203410917847 351.79296757604084) rotate(255.34148046721884)"><path class="outline" fill="#A5ABB6" stroke="none" d="M 25 0.5 L 46.290981366453046 0.5 L 46.290981366453046 -0.5 L 25 -0.5 Z M 68.29098136645305 0.5 L 89.58196273290609 0.5 L 89.58196273290609 3.5 L 96.58196273290609 0 L 89.58196273290609 -3.5 L 89.58196273290609 -0.5 L 68.29098136645305 -0.5 Z"/><text text-anchor="middle" pointer-events="none" font-size="8px" fill="#000000" x="57.290981366453046" y="3" transform="rotate(180 57.290981366453046 0)" font-family="sans-serif">属于</text></g><g class="relationship" transform="translate(358.22264168161155 38.14915029879506) rotate(184.04580391252966)"><path class="outline" fill="#A5ABB6" stroke="none" d="M 25 0.5 L 45.90369771111384 0.5 L 45.90369771111384 -0.5 L 25 -0.5 Z M 67.90369771111384 0.5 L 88.80739542222769 0.5 L 88.80739542222769 3.5 L 95.80739542222769 0 L 88.80739542222769 -3.5 L 88.80739542222769 -0.5 L 67.90369771111384 -0.5 Z"/><text text-anchor="middle" pointer-events="none" font-size="8px" fill="#000000" x="56.90369771111384" y="3" transform="rotate(180 56.90369771111384 0)" font-family="sans-serif">属于</text></g><g class="relationship" transform="translate(333.7846083887924 -50.0884533423429) rotate(500.31528288275945)"><path class="outline" fill="#A5ABB6" stroke="none" d="M 25 0.5 L 47.9168803291524 0.5 L 47.9168803291524 -0.5 L 25 -0.5 Z M 69.9168803291524 0.5 L 92.8337606583048 0.5 L 92.8337606583048 3.5 L 99.8337606583048 0 L 92.8337606583048 -3.5 L 92.8337606583048 -0.5 L 69.9168803291524 -0.5 Z"/><text text-anchor="middle" pointer-events="none" font-size="8px" fill="#000000" x="58.9168803291524" y="3" transform="rotate(180 58.9168803291524 0)" font-family="sans-serif">属于</text></g><g class="relationship" transform="translate(251.9000977105552 -88.57282771241937) rotate(456.8427592669226)"><path class="outline" fill="#A5ABB6" stroke="none" d="M 25 0.5 L 45.023262621807305 0.5 L 45.023262621807305 -0.5 L 25 -0.5 Z M 67.0232626218073 0.5 L 87.04652524361461 0.5 L 87.04652524361461 3.5 L 94.04652524361461 0 L 87.04652524361461 -3.5 L 87.04652524361461 -0.5 L 67.0232626218073 -0.5 Z"/><text text-anchor="middle" pointer-events="none" font-size="8px" fill="#000000" x="56.023262621807305" y="3" transform="rotate(180 56.023262621807305 0)" font-family="sans-serif">属于</text></g><g class="relationship" transform="translate(-208.9358063151709 97.93044748848789) rotate(346.39423145034186)"><path class="outline" fill="#A5ABB6" stroke="none" d="M 25 0.5 L 45.611329501361375 0.5 L 45.611329501361375 -0.5 L 25 -0.5 Z M 67.61132950136138 0.5 L 88.22265900272275 0.5 L 88.22265900272275 3.5 L 95.22265900272275 0 L 88.22265900272275 -3.5 L 88.22265900272275 -0.5 L 67.61132950136138 -0.5 Z"/><text text-anchor="middle" pointer-events="none" font-size="8px" fill="#000000" x="56.611329501361375" y="3" font-family="sans-serif">属于</text></g><g class="relationship" transform="translate(-151.25544141231683 173.31618292686065) rotate(299.71582861300396)"><path class="outline" fill="#A5ABB6" stroke="none" d="M 25 0.5 L 45.1819539302314 0.5 L 45.1819539302314 -0.5 L 25 -0.5 Z M 67.1819539302314 0.5 L 87.3639078604628 0.5 L 87.3639078604628 3.5 L 94.3639078604628 0 L 87.3639078604628 -3.5 L 87.3639078604628 -0.5 L 67.1819539302314 -0.5 Z"/><text text-anchor="middle" pointer-events="none" font-size="8px" fill="#000000" x="56.1819539302314" y="3" font-family="sans-serif">属于</text></g><g class="relationship" transform="translate(-184.73940767279075 -1.5886215576686178) rotate(397.55567107784117)"><path class="outline" fill="#A5ABB6" stroke="none" d="M 25 0.5 L 43.93655022364888 0.5 L 43.93655022364888 -0.5 L 25 -0.5 Z M 65.93655022364888 0.5 L 84.87310044729776 0.5 L 84.87310044729776 3.5 L 91.87310044729776 0 L 84.87310044729776 -3.5 L 84.87310044729776 -0.5 L 65.93655022364888 -0.5 Z"/><text text-anchor="middle" pointer-events="none" font-size="8px" fill="#000000" x="54.93655022364888" y="3" font-family="sans-serif">属于</text></g><g class="relationship" transform="translate(3.090225248986333 -203.26257063524605) rotate(440.295108474832)"><path class="outline" fill="#A5ABB6" stroke="none" d="M 25 0.5 L 45.18466287538233 0.5 L 45.18466287538233 -0.5 L 25 -0.5 Z M 67.18466287538233 0.5 L 87.36932575076466 0.5 L 87.36932575076466 3.5 L 94.36932575076466 0 L 87.36932575076466 -3.5 L 87.36932575076466 -0.5 L 67.18466287538233 -0.5 Z"/><text text-anchor="middle" pointer-events="none" font-size="8px" fill="#000000" x="56.18466287538233" y="3" font-family="sans-serif">属于</text></g><g class="relationship" transform="translate(98.26462108674441 -177.40619590150368) rotate(489.2665867429602)"><path class="outline" fill="#A5ABB6" stroke="none" d="M 25 0.5 L 44.789296029757615 0.5 L 44.789296029757615 -0.5 L 25 -0.5 Z M 66.78929602975762 0.5 L 86.57859205951523 0.5 L 86.57859205951523 3.5 L 93.57859205951523 0 L 86.57859205951523 -3.5 L 86.57859205951523 -0.5 L 66.78929602975762 -0.5 Z"/><text text-anchor="middle" pointer-events="none" font-size="8px" fill="#000000" x="55.789296029757615" y="3" transform="rotate(180 55.789296029757615 0)" font-family="sans-serif">属于</text></g><g class="relationship" transform="translate(-80.33565590349963 -142.97331673166332) rotate(388.98898418066346)"><path class="outline" fill="#A5ABB6" stroke="none" d="M 25 0.5 L 44.68992950358521 0.5 L 44.68992950358521 -0.5 L 25 -0.5 Z M 66.6899295035852 0.5 L 86.37985900717042 0.5 L 86.37985900717042 3.5 L 93.37985900717042 0 L 86.37985900717042 -3.5 L 86.37985900717042 -0.5 L 66.6899295035852 -0.5 Z"/><text text-anchor="middle" pointer-events="none" font-size="8px" fill="#000000" x="55.68992950358521" y="3" font-family="sans-serif">属于</text></g><g class="relationship" transform="translate(33.18768920314149 40.31981376936376) rotate(265.47072930793036)"><path class="outline" fill="#A5ABB6" stroke="none" d="M 25 0.5 L 48.65790618512902 0.5 L 48.65790618512902 -0.5 L 25 -0.5 Z M 70.65790618512902 0.5 L 94.31581237025804 0.5 L 94.31581237025804 3.5 L 101.31581237025804 0 L 94.31581237025804 -3.5 L 94.31581237025804 -0.5 L 70.65790618512902 -0.5 Z"/><text text-anchor="middle" pointer-events="none" font-size="8px" fill="#000000" x="59.65790618512902" y="3" transform="rotate(180 59.65790618512902 0)" font-family="sans-serif">包含</text></g><g class="relationship" transform="translate(33.18768920314149 40.31981376936376) rotate(526.8231667426985)"><path class="outline" fill="#A5ABB6" stroke="none" d="M 25 0.5 L 49.8310659153381 0.5 L 49.8310659153381 -0.5 L 25 -0.5 Z M 71.8310659153381 0.5 L 96.6621318306762 0.5 L 96.6621318306762 3.5 L 103.6621318306762 0 L 96.6621318306762 -3.5 L 96.6621318306762 -0.5 L 71.8310659153381 -0.5 Z"/><text text-anchor="middle" pointer-events="none" font-size="8px" fill="#000000" x="60.8310659153381" y="3" transform="rotate(180 60.8310659153381 0)" font-family="sans-serif">包含</text></g><g class="relationship" transform="translate(33.18768920314149 40.31981376936376) rotate(395.6835458860361)"><path class="outline" fill="#A5ABB6" stroke="none" d="M 25 0.5 L 55.16652289184921 0.5 L 55.16652289184921 -0.5 L 25 -0.5 Z M 77.16652289184921 0.5 L 107.33304578369842 0.5 L 107.33304578369842 3.5 L 114.33304578369842 0 L 107.33304578369842 -3.5 L 107.33304578369842 -0.5 L 77.16652289184921 -0.5 Z"/><text text-anchor="middle" pointer-events="none" font-size="8px" fill="#000000" x="66.16652289184921" y="3" font-family="sans-serif">包含</text></g><g class="relationship" transform="translate(253.4709926671713 327.1137064086522) rotate(265.8175330668509)"><path class="outline" fill="#A5ABB6" stroke="none" d="M 25 0.5 L 46.36211224288456 0.5 L 46.36211224288456 -0.5 L 25 -0.5 Z M 68.36211224288456 0.5 L 89.72422448576911 0.5 L 89.72422448576911 3.5 L 96.72422448576911 0 L 89.72422448576911 -3.5 L 89.72422448576911 -0.5 L 68.36211224288456 -0.5 Z"/><text text-anchor="middle" pointer-events="none" font-size="8px" fill="#000000" x="57.36211224288456" y="3" transform="rotate(180 57.36211224288456 0)" font-family="sans-serif">属于</text></g></g><g class="layer nodes"><g class="node" transform="translate(146.36110526673718,121.5938904719536)"><circle class="outline" cx="0" cy="0" r="25" fill="#57C7E3" stroke="#23b3d7" stroke-width="2px"/><text text-anchor="middle" pointer-events="none" font-family="sans-serif" dy="1.5625" font-size="25" fill="#FFFFFF"/><text text-anchor="middle" pointer-events="none" y="5" font-size="10px" fill="#FFFFFF" font-family="sans-serif"> 广州校区</text></g><g class="node" transform="translate(23.212734059040244,-85.60152963449055)"><circle class="outline" cx="0" cy="0" r="25" fill="#57C7E3" stroke="#23b3d7" stroke-width="2px"/><text text-anchor="middle" pointer-events="none" font-family="sans-serif" dy="1.5625" font-size="25" fill="#FFFFFF"/><text text-anchor="middle" pointer-events="none" y="5" font-size="10px" fill="#FFFFFF" font-family="sans-serif"> 深圳校区</text></g><g class="node" transform="translate(244.59327910223655,205.7136527491876)"><circle class="outline" cx="0" cy="0" r="25" fill="#F16667" stroke="#eb2728" stroke-width="2px"/><text text-anchor="middle" pointer-events="none" font-family="sans-serif" dy="1.5625" font-size="25" fill="#FFFFFF"/><text text-anchor="middle" pointer-events="none" y="5" font-size="10px" fill="#FFFFFF" font-family="sans-serif"> 南校园</text></g><g class="node" transform="translate(365.1775018096262,197.25313635041817)"><circle class="outline" cx="0" cy="0" r="25" fill="#D9C8AE" stroke="#c0a378" stroke-width="2px"/><text text-anchor="middle" pointer-events="none" font-family="sans-serif" dy="1.5625" font-size="25" fill="#604A0E"/><text text-anchor="middle" pointer-events="none" y="5" font-size="10px" fill="#604A0E" font-family="sans-serif"> 历史学系</text></g><g class="node" transform="translate(336.3079110829312,287.5570605501529)"><circle class="outline" cx="0" cy="0" r="25" fill="#D9C8AE" stroke="#c0a378" stroke-width="2px"/><text text-anchor="middle" pointer-events="none" font-family="sans-serif" dy="1.5625" font-size="25" fill="#604A0E"/><text text-anchor="middle" pointer-events="none" y="5" font-size="10px" fill="#604A0E" font-family="sans-serif"> 哲学系</text></g><g class="node" transform="translate(25.179339245916168,346.8619656634113)"><circle class="outline" cx="0" cy="0" r="25" fill="#D9C8AE" stroke="#c0a378" stroke-width="2px"/><text text-anchor="middle" pointer-events="none" font-family="sans-serif" dy="1.5625" font-size="25" fill="#604A0E"/><text text-anchor="middle" pointer-events="none" y="5" font-size="10px" fill="#604A0E" font-family="sans-serif"> 中山医…</text></g><g class="node" transform="translate(-29.081853810671554,279.41304724626474)"><circle class="outline" cx="0" cy="0" r="25" fill="#D9C8AE" stroke="#c0a378" stroke-width="2px"/><text text-anchor="middle" pointer-events="none" font-family="sans-serif" dy="1.5625" font-size="25" fill="#604A0E"/><text text-anchor="middle" pointer-events="none" y="5" font-size="10px" fill="#604A0E" font-family="sans-serif"> 光华口…</text></g><g class="node" transform="translate(112.4203410917847,351.79296757604084)"><circle class="outline" cx="0" cy="0" r="25" fill="#D9C8AE" stroke="#c0a378" stroke-width="2px"/><text text-anchor="middle" pointer-events="none" font-family="sans-serif" dy="1.5625" font-size="25" fill="#604A0E"/><text text-anchor="middle" pointer-events="none" y="5" font-size="10px" fill="#604A0E" font-family="sans-serif"> 公共卫…</text></g><g class="node" transform="translate(358.22264168161155,38.14915029879506)"><circle class="outline" cx="0" cy="0" r="25" fill="#D9C8AE" stroke="#c0a378" stroke-width="2px"/><text text-anchor="middle" pointer-events="none" font-family="sans-serif" dy="1.5625" font-size="25" fill="#604A0E"/><text text-anchor="middle" pointer-events="none" y="5" font-size="10px" fill="#604A0E" font-family="sans-serif"> 法学院</text></g><g class="node" transform="translate(333.7846083887924,-50.0884533423429)"><circle class="outline" cx="0" cy="0" r="25" fill="#D9C8AE" stroke="#c0a378" stroke-width="2px"/><text text-anchor="middle" pointer-events="none" font-family="sans-serif" dy="1.5625" font-size="25" fill="#604A0E"/><text text-anchor="middle" pointer-events="none" y="5" font-size="10px" fill="#604A0E" font-family="sans-serif"> 政治与…</text></g><g class="node" transform="translate(251.9000977105552,-88.57282771241937)"><circle class="outline" cx="0" cy="0" r="25" fill="#D9C8AE" stroke="#c0a378" stroke-width="2px"/><text text-anchor="middle" pointer-events="none" font-family="sans-serif" dy="1.5625" font-size="25" fill="#604A0E"/><text text-anchor="middle" pointer-events="none" y="5" font-size="10px" fill="#604A0E" font-family="sans-serif"> 管理学院</text></g><g class="node" transform="translate(-208.9358063151709,97.93044748848789)"><circle class="outline" cx="0" cy="0" r="25" fill="#D9C8AE" stroke="#c0a378" stroke-width="2px"/><text text-anchor="middle" pointer-events="none" font-family="sans-serif" dy="1.5625" font-size="25" fill="#604A0E"/><text text-anchor="middle" pointer-events="none" y="5" font-size="10px" fill="#604A0E" font-family="sans-serif"> 中国语…</text></g><g class="node" transform="translate(-151.25544141231683,173.31618292686065)"><circle class="outline" cx="0" cy="0" r="25" fill="#D9C8AE" stroke="#c0a378" stroke-width="2px"/><text text-anchor="middle" pointer-events="none" font-family="sans-serif" dy="1.5625" font-size="25" fill="#604A0E"/><text text-anchor="middle" pointer-events="none" y="5" font-size="10px" fill="#604A0E" font-family="sans-serif"> 历史学…</text></g><g class="node" transform="translate(-184.73940767279075,-1.5886215576686178)"><circle class="outline" cx="0" cy="0" r="25" fill="#D9C8AE" stroke="#c0a378" stroke-width="2px"/><text text-anchor="middle" pointer-events="none" font-family="sans-serif" dy="1.5625" font-size="25" fill="#604A0E"/><text text-anchor="middle" pointer-events="none" y="5" font-size="10px" fill="#604A0E" font-family="sans-serif"> 哲学系…</text></g><g class="node" transform="translate(3.090225248986333,-203.26257063524605)"><circle class="outline" cx="0" cy="0" r="25" fill="#D9C8AE" stroke="#c0a378" stroke-width="2px"/><text text-anchor="middle" pointer-events="none" font-family="sans-serif" dy="1.5625" font-size="25" fill="#604A0E"/><text text-anchor="middle" pointer-events="none" y="5" font-size="10px" fill="#604A0E" font-family="sans-serif"> 医学院</text></g><g class="node" transform="translate(98.26462108674441,-177.40619590150368)"><circle class="outline" cx="0" cy="0" r="25" fill="#D9C8AE" stroke="#c0a378" stroke-width="2px"/><text text-anchor="middle" pointer-events="none" font-family="sans-serif" dy="1.5625" font-size="25" fill="#604A0E"/><text text-anchor="middle" pointer-events="none" y="5" font-size="10px" fill="#604A0E" font-family="sans-serif"> 公共卫…</text></g><g class="node" transform="translate(-80.33565590349963,-142.97331673166332)"><circle class="outline" cx="0" cy="0" r="25" fill="#D9C8AE" stroke="#c0a378" stroke-width="2px"/><text text-anchor="middle" pointer-events="none" font-family="sans-serif" dy="1.5625" font-size="25" fill="#604A0E"/><text text-anchor="middle" pointer-events="none" y="5" font-size="10px" fill="#604A0E" font-family="sans-serif"> 药学院…</text></g><g class="node" transform="translate(33.18768920314149,40.31981376936376)"><circle class="outline" cx="0" cy="0" r="25" fill="#8DCC93" stroke="#5db665" stroke-width="2px"/><text text-anchor="middle" pointer-events="none" font-family="sans-serif" dy="1.5625" font-size="25" fill="#604A0E"/><text text-anchor="middle" pointer-events="none" y="5" font-size="10px" fill="#604A0E" font-family="sans-serif"> 中山大学</text></g><g class="node" transform="translate(81.65310083941237,234.16835030041028)"><circle class="outline" cx="0" cy="0" r="25" fill="#F16667" stroke="#eb2728" stroke-width="2px"/><text text-anchor="middle" pointer-events="none" font-family="sans-serif" dy="1.5625" font-size="25" fill="#FFFFFF"/><text text-anchor="middle" pointer-events="none" y="5" font-size="10px" fill="#FFFFFF" font-family="sans-serif"> 北校园</text></g><g class="node" transform="translate(-92.08691714032557,69.64927289672694)"><circle class="outline" cx="0" cy="0" r="25" fill="#57C7E3" stroke="#23b3d7" stroke-width="2px"/><text text-anchor="middle" pointer-events="none" font-family="sans-serif" dy="1.5625" font-size="25" fill="#FFFFFF"/><text text-anchor="middle" pointer-events="none" y="5" font-size="10px" fill="#FFFFFF" font-family="sans-serif"> 珠海校区</text></g><g class="node" transform="translate(237.7163023784883,29.625713406143543)"><circle class="outline" cx="0" cy="0" r="25" fill="#F16667" stroke="#eb2728" stroke-width="2px"/><text text-anchor="middle" pointer-events="none" font-family="sans-serif" dy="1.5625" font-size="25" fill="#FFFFFF"/><text text-anchor="middle" pointer-events="none" y="5" font-size="10px" fill="#FFFFFF" font-family="sans-serif"> 东校园</text></g><g class="node" transform="translate(253.4709926671713,327.1137064086522)"><circle class="outline" cx="0" cy="0" r="25" fill="#D9C8AE" stroke="#c0a378" stroke-width="2px"/><text text-anchor="middle" pointer-events="none" font-family="sans-serif" dy="1.5625" font-size="25" fill="#604A0E"/><text text-anchor="middle" pointer-events="none" y="5" font-size="10px" fill="#604A0E" font-family="sans-serif"> 中国语…</text></g></g></svg>